<?xml version="1.0" standalone="no"?>
<!DOCTYPE svg PUBLIC "-//W3C//DTD SVG 20010904//EN"
 "http://www.w3.org/TR/2001/REC-SVG-20010904/DTD/svg10.dtd">
<svg version="1.0" xmlns="http://www.w3.org/2000/svg"
 width="200.000000pt" height="200.000000pt" viewBox="0 0 200.000000 200.000000"
 preserveAspectRatio="xMidYMid meet">

<g transform="translate(0.000000,200.000000) scale(0.100000,-0.100000)"
fill="#000000" stroke="none">
<path d="M782 1581 c-7 -4 -35 -6 -63 -3 -27 2 -55 0 -61 -5 -7 -5 -32 -15
-56 -23 -89 -28 -152 -113 -152 -206 0 -53 27 -154 41 -154 3 0 22 -13 40 -30
19 -16 42 -30 52 -30 10 0 46 -13 80 -29 34 -16 79 -34 100 -42 59 -21 72 -42
71 -114 -1 -47 -6 -70 -22 -93 -12 -16 -22 -35 -22 -41 0 -15 -39 -34 -61 -28
-10 3 -21 1 -24 -3 -8 -13 -79 1 -88 17 -4 7 -14 13 -21 13 -8 0 -19 7 -26 15
-16 19 -16 131 0 150 10 12 9 16 -5 22 -17 6 -52 -25 -99 -87 -6 -8 -25 -22
-41 -31 -20 -10 -29 -21 -27 -34 5 -23 89 -135 103 -135 5 0 13 -10 18 -23 6
-16 25 -27 65 -40 72 -22 103 -21 196 3 60 15 81 26 103 52 15 18 27 36 27 40
0 4 7 8 15 8 8 0 15 5 15 11 0 5 12 36 26 67 23 51 25 65 20 132 -4 52 -11 82
-26 102 -11 15 -20 32 -20 37 0 15 -68 64 -109 79 -20 7 -70 24 -110 38 -81
26 -111 47 -111 75 0 9 -5 19 -11 21 -18 6 0 73 29 107 29 33 59 39 122 24 34
-9 40 -17 83 -110 5 -12 7 -38 3 -57 -5 -24 -3 -36 4 -36 15 0 49 41 50 58 0
6 4 12 10 12 5 0 19 18 30 39 11 22 27 44 36 49 13 7 14 11 2 23 -7 8 -20 27
-28 43 -8 15 -25 32 -37 37 -13 5 -23 13 -23 19 0 5 -8 10 -17 10 -20 0 -59
29 -64 47 -3 8 -9 9 -17 4z"/>
<path d="M980 1559 c0 -5 11 -14 25 -19 60 -23 67 -40 73 -167 5 -139 5 -132
0 -206 -2 -32 -2 -59 0 -62 5 -5 4 -119 -3 -358 -3 -87 -1 -157 5 -167 7 -12
6 -20 -1 -22 -6 -2 -12 -28 -13 -57 -2 -44 1 -58 18 -75 l21 -21 3 35 c3 40
21 90 32 90 4 0 11 8 14 18 9 26 33 64 58 94 20 24 22 38 22 147 1 67 -3 121
-7 121 -4 0 -3 8 2 18 6 10 8 28 5 40 -12 43 8 56 87 58 109 2 154 18 206 70
24 25 41 49 38 54 -4 6 -2 10 3 10 29 0 48 192 23 237 -5 10 -18 35 -27 56 -9
20 -20 37 -25 37 -4 0 -23 13 -41 28 -18 16 -42 32 -53 37 -30 12 -465 16
-465 4z m374 -119 c85 0 128 -186 59 -254 -14 -14 -28 -26 -32 -27 -3 0 -24
-2 -46 -5 -56 -7 -85 -7 -91 -1 -3 3 -7 69 -9 147 l-3 142 29 -4 c17 -3 32 -1
35 4 4 5 13 7 21 4 8 -3 25 -6 37 -6z"/>
</g>
</svg>
